<svg width="62" height="110" viewBox="0 0 62 110" fill="none" xmlns="http://www.w3.org/2000/svg">
<g id="logo">
<g id="Oval 1">
<mask id="path-1-inside-1" fill="white">
<path fill-rule="evenodd" clip-rule="evenodd" d="M39.1542 66.2359C33.2568 63.4025 26.1861 63.1405 19.7958 66.1256C8.47058 71.416 3.57082 84.9018 8.85184 96.2471C14.1329 107.592 27.5948 112.501 38.92 107.21C50.0434 102.014 54.9683 88.9121 50.1366 77.6973"/>
</mask>
<path d="M19.7958 66.1256L20.8122 68.3016L19.7958 66.1256ZM38.92 107.21L39.9365 109.386L38.92 107.21ZM40.1942 64.0711C33.6756 60.9393 25.8497 60.6469 18.7793 63.9497L20.8122 68.3016C26.5225 65.6341 32.838 65.8658 38.1141 68.4007L40.1942 64.0711ZM18.7793 63.9497C6.25119 69.802 0.835354 84.7163 6.6745 97.2606L11.0292 95.2336C6.30628 85.0873 10.69 73.03 20.8122 68.3016L18.7793 63.9497ZM6.6745 97.2606C12.5147 109.807 27.4061 115.24 39.9365 109.386L37.9036 105.034C27.7836 109.762 15.751 105.377 11.0292 95.2336L6.6745 97.2606ZM39.9365 109.386C52.2418 103.638 57.6852 89.1483 52.3422 76.747L47.9309 78.6476C52.2515 88.676 47.8451 100.39 37.9036 105.034L39.9365 109.386Z" fill="white" mask="url(#path-1-inside-1)"/>
</g>
<path id="Path 1" d="M10.1882 96.6796C10.1882 96.6796 11.9726 84.5584 25.5396 78.2208C39.1067 71.8832 49.3362 78.3923 49.3362 78.3923" stroke="white" stroke-width="2.40167"/>
<path id="Rectangle 3" fill-rule="evenodd" clip-rule="evenodd" d="M17.9389 61.0007L20.2833 66.4898L17.9493 67.5694L15.5945 61.7724L17.9389 61.0007Z" fill="white"/>
<path id="Oval 5" fill-rule="evenodd" clip-rule="evenodd" d="M9.2064 67.1291C13.8909 64.7598 17.3771 62.1149 16.993 61.2216C16.6089 60.3283 12.5001 61.5247 7.81554 63.894C3.13104 66.2632 -0.355153 68.9081 0.0289209 69.8014C0.412995 70.6948 4.52189 69.4983 9.2064 67.1291Z" fill="white"/>
<path id="Oval 5_2" fill-rule="evenodd" clip-rule="evenodd" d="M25.0283 59.2035C29.7128 56.8343 33.199 54.1894 32.8149 53.2961C32.4308 52.4027 28.322 53.5992 23.6374 55.9684C18.9529 58.3377 15.4667 60.9825 15.8508 61.8759C16.2349 62.7692 20.3438 61.5728 25.0283 59.2035Z" fill="white"/>
<path id="Rectangle 7" d="M28.9672 76.7998C28.7262 76.8791 28.4888 76.96 28.2553 77.042L39.8023 66.0163C40.54 65.3118 41.6838 64.6798 42.9665 64.2688C44.2493 63.8579 45.5469 63.7078 46.5555 63.8525L57.5472 65.4294C59.8 65.7526 60.5867 66.5731 60.7513 67.1346C60.9159 67.6965 60.6962 68.8132 58.974 70.3038L49.6432 78.3796C49.4745 78.3019 49.2793 78.2137 49.0604 78.1175C48.2451 77.7591 47.0961 77.2871 45.7565 76.8312C43.1118 75.9311 39.5851 75.0443 36.394 75.324C34.2098 75.5154 31.3101 76.0289 28.9672 76.7998Z" stroke="white" stroke-width="2.40167"/>
<path id="Path 26" d="M27.8467 86.7469C27.8467 86.7469 29.5434 84.4988 32.0598 84.3914C34.5761 84.2839 36.2491 86.0268 36.2491 86.0268" stroke="white" stroke-width="2.1615" stroke-linecap="round" stroke-linejoin="round"/>
<path id="Path 26_2" d="M43.9602 86.2295C43.9602 86.2295 45.5266 84.359 47.89 84.7515C48.5257 84.8571 49.4929 85.7978 49.9662 86.0356" stroke="white" stroke-width="2.1615" stroke-linecap="round" stroke-linejoin="round"/>
<path id="Oval 11" fill-rule="evenodd" clip-rule="evenodd" d="M43.3713 92.7357C42.9617 94.5868 41.7915 95.9081 40.3976 95.8941C39.0432 95.8805 37.8729 94.6103 37.3952 92.8324C37.3658 92.7232 37.3349 92.5791 37.3059 92.4302C37.2313 92.0474 37.541 91.7046 37.9307 91.7178C38.0995 91.7236 38.2647 91.7282 38.3876 91.7294C39.4667 91.7403 42.371 91.7142 42.371 91.7142L42.8344 91.7178C43.1986 91.7205 43.4831 92.0365 43.4303 92.3968C43.4117 92.5232 43.3916 92.6442 43.3713 92.7357Z" fill="white"/>
</g>
</svg>
