<svg id="Layer_1" data-name="Layer 1" xmlns="http://www.w3.org/2000/svg" xmlns:xlink="http://www.w3.org/1999/xlink" viewBox="0 0 62 58.74"><defs><style>.cls-1,.cls-3{fill:#fff;}.cls-1{fill-rule:evenodd;}.cls-2{mask:url(#mask);}.cls-4,.cls-5{fill:none;stroke:#fff;}.cls-4{stroke-width:2.4px;}.cls-5{stroke-linecap:round;stroke-linejoin:round;stroke-width:2.16px;}</style><mask id="mask" x="4.32" y="8.59" width="50.07" height="50.15" maskUnits="userSpaceOnUse"><g transform="translate(88.97 -51.23)"><g id="path-1-inside-1"><path class="cls-1" d="M-49.81,64.47a22.54,22.54,0,0,0-19.36-.11,22.68,22.68,0,0,0-11,30.12,22.6,22.6,0,0,0,30.07,11A22.68,22.68,0,0,0-38.83,75.93"/></g></g></mask></defs><title>small-logo</title><g id="logo"><g id="Oval_1" data-name="Oval 1"><g class="cls-2"><path class="cls-3" d="M-69.17,64.36l1,2.18ZM-50,105.44l1,2.18Zm1.28-43.13a24.94,24.94,0,0,0-21.42-.13l2,4.36a20.17,20.17,0,0,1,17.31.09Zm-21.42-.13a25.08,25.08,0,0,0-12.1,33.31l4.35-2a20.28,20.28,0,0,1,9.78-26.93Zm-12.1,33.31A25,25,0,0,0-49,107.62l-2-4.35a20.2,20.2,0,0,1-26.87-9.8ZM-49,107.62A25.08,25.08,0,0,0-36.63,75L-41,76.88a20.28,20.28,0,0,1-10,26.39Z" transform="translate(88.97 -51.23)"/></g></g><path id="Path_1" data-name="Path 1" class="cls-4" d="M-78.78,94.91S-77,82.79-63.43,76.46s23.8.17,23.8.17" transform="translate(88.97 -51.23)"/><path id="Rectangle_3" data-name="Rectangle 3" class="cls-1" d="M-71,59.23l2.34,5.49L-71,65.8-73.37,60Z" transform="translate(88.97 -51.23)"/><path id="Oval_5" data-name="Oval 5" class="cls-1" d="M-79.76,65.36c4.68-2.37,8.17-5,7.78-5.9s-4.49.3-9.17,2.67-8.17,5-7.79,5.91S-84.45,67.73-79.76,65.36Z" transform="translate(88.97 -51.23)"/><path id="Oval_5_2" data-name="Oval 5_2" class="cls-1" d="M-63.94,57.44c4.68-2.37,8.17-5,7.79-5.91s-4.5.3-9.18,2.67-8.17,5-7.79,5.91S-68.63,59.81-63.94,57.44Z" transform="translate(88.97 -51.23)"/><path id="Rectangle_7" data-name="Rectangle 7" class="cls-4" d="M-60,75l-.71.25,11.54-11A8.47,8.47,0,0,1-46,62.5a8.34,8.34,0,0,1,3.59-.41l11,1.57c2.25.33,3,1.15,3.2,1.71s-.05,1.68-1.77,3.17l-9.34,8.07-.58-.26c-.81-.36-2-.83-3.3-1.28a24.17,24.17,0,0,0-9.36-1.51A35.5,35.5,0,0,0-60,75Z" transform="translate(88.97 -51.23)"/><path id="Path_26" data-name="Path 26" class="cls-5" d="M-61.12,85a6.23,6.23,0,0,1,4.21-2.35,5.9,5.9,0,0,1,4.19,1.63" transform="translate(88.97 -51.23)"/><path id="Path_26_2" data-name="Path 26_2" class="cls-5" d="M-45,84.46A4.51,4.51,0,0,1-41.08,83c.64.1,1.6,1,2.08,1.28" transform="translate(88.97 -51.23)"/><path id="Oval_11" data-name="Oval 11" class="cls-1" d="M-45.6,91c-.41,1.85-1.58,3.17-3,3.16s-2.53-1.29-3-3.06c0-.11-.06-.26-.09-.41A.6.6,0,0,1-51,90h.46c1.08,0,4,0,4,0h.47a.6.6,0,0,1,.59.68C-45.56,90.76-45.58,90.88-45.6,91Z" transform="translate(88.97 -51.23)"/></g></svg>